<?xml version="1.0" encoding="UTF-8" standalone="no"?>
<!DOCTYPE svg PUBLIC "-//W3C//DTD SVG 1.1//EN"
 "http://www.w3.org/Graphics/SVG/1.1/DTD/svg11.dtd">
<!-- Generated by graphviz version 2.43.0 (0)
 -->
<!-- Title: G Pages: 1 -->
<svg width="1527pt" height="509pt"
 viewBox="0.00 0.00 1527.30 508.80" xmlns="http://www.w3.org/2000/svg" xmlns:xlink="http://www.w3.org/1999/xlink">
<g id="graph0" class="graph" transform="scale(1 1) rotate(0) translate(14.4 494.4)">
<title>G</title>
<polygon fill="white" stroke="transparent" points="-14.4,14.4 -14.4,-494.4 1512.9,-494.4 1512.9,14.4 -14.4,14.4"/>
<!-- Database -->
<g id="node1" class="node">
<title>Database</title>
<polygon fill="none" stroke="black" points="585,-245.5 585,-479.5 767,-479.5 767,-245.5 585,-245.5"/>
<text text-anchor="middle" x="676" y="-462.7" font-family="monospace" font-size="16.00">Database</text>
<polyline fill="none" stroke="black" points="585,-453.5 767,-453.5 "/>
<text text-anchor="start" x="593" y="-436.7" font-family="monospace" font-size="16.00">admins</text>
<polyline fill="none" stroke="black" points="585,-427.5 767,-427.5 "/>
<text text-anchor="start" x="593" y="-410.7" font-family="monospace" font-size="16.00">courses</text>
<polyline fill="none" stroke="black" points="585,-401.5 767,-401.5 "/>
<text text-anchor="start" x="593" y="-384.7" font-family="monospace" font-size="16.00">participants</text>
<polyline fill="none" stroke="black" points="585,-375.5 767,-375.5 "/>
<text text-anchor="start" x="593" y="-358.7" font-family="monospace" font-size="16.00">chapters</text>
<polyline fill="none" stroke="black" points="585,-349.5 767,-349.5 "/>
<text text-anchor="start" x="593" y="-332.7" font-family="monospace" font-size="16.00">assignments</text>
<polyline fill="none" stroke="black" points="585,-323.5 767,-323.5 "/>
<text text-anchor="start" x="593" y="-306.7" font-family="monospace" font-size="16.00">chapterResults</text>
<polyline fill="none" stroke="black" points="585,-297.5 767,-297.5 "/>
<text text-anchor="start" x="593" y="-280.7" font-family="monospace" font-size="16.00">assignmentResults</text>
<polyline fill="none" stroke="black" points="585,-271.5 767,-271.5 "/>
<text text-anchor="start" x="593" y="-254.7" font-family="monospace" font-size="16.00">testRequests</text>
</g>
<!-- Admin -->
<g id="node2" class="node">
<title>Admin</title>
<polygon fill="none" stroke="black" points="0,-65.5 0,-143.5 124,-143.5 124,-65.5 0,-65.5"/>
<text text-anchor="middle" x="62" y="-126.7" font-family="monospace" font-size="16.00">Admin</text>
<polyline fill="none" stroke="black" points="0,-117.5 124,-117.5 "/>
<text text-anchor="start" x="8" y="-100.7" font-family="monospace" font-size="16.00">id</text>
<polyline fill="none" stroke="black" points="0,-91.5 124,-91.5 "/>
<text text-anchor="start" x="8" y="-74.7" font-family="monospace" font-size="16.00">accessToken</text>
</g>
<!-- Database&#45;&gt;Admin -->
<g id="edge1" class="edge">
<title>Database:admins&#45;&gt;Admin:n</title>
<path fill="none" stroke="black" d="M584,-440.5C320.68,-440.5 68.48,-411.94 62.12,-154.54"/>
<polygon fill="black" stroke="black" points="62.12,-154.5 66.5,-144.44 62.06,-149.5 62,-144.5 62,-144.5 62,-144.5 62.06,-149.5 57.5,-144.56 62.12,-154.5 62.12,-154.5"/>
</g>
<!-- Course -->
<g id="node3" class="node">
<title>Course</title>
<polygon fill="none" stroke="black" points="185.5,-52.5 185.5,-156.5 270.5,-156.5 270.5,-52.5 185.5,-52.5"/>
<text text-anchor="middle" x="228" y="-139.7" font-family="monospace" font-size="16.00">Course</text>
<polyline fill="none" stroke="black" points="185.5,-130.5 270.5,-130.5 "/>
<text text-anchor="start" x="193.5" y="-113.7" font-family="monospace" font-size="16.00">id</text>
<polyline fill="none" stroke="black" points="185.5,-104.5 270.5,-104.5 "/>
<text text-anchor="start" x="193.5" y="-87.7" font-family="monospace" font-size="16.00">name</text>
<polyline fill="none" stroke="black" points="185.5,-78.5 270.5,-78.5 "/>
<text text-anchor="start" x="193.5" y="-61.7" font-family="monospace" font-size="16.00">adminId</text>
</g>
<!-- Database&#45;&gt;Course -->
<g id="edge2" class="edge">
<title>Database:courses&#45;&gt;Course:n</title>
<path fill="none" stroke="black" d="M584,-414.5C392.29,-414.5 233.67,-354.8 228.15,-167.67"/>
<polygon fill="black" stroke="black" points="228.15,-167.5 232.5,-157.43 228.07,-162.5 228,-157.5 228,-157.5 228,-157.5 228.07,-162.5 223.5,-157.57 228.15,-167.5 228.15,-167.5"/>
</g>
<!-- Participant -->
<g id="node4" class="node">
<title>Participant</title>
<polygon fill="none" stroke="black" points="332,-39.5 332,-169.5 456,-169.5 456,-39.5 332,-39.5"/>
<text text-anchor="middle" x="394" y="-152.7" font-family="monospace" font-size="16.00">Participant</text>
<polyline fill="none" stroke="black" points="332,-143.5 456,-143.5 "/>
<text text-anchor="start" x="340" y="-126.7" font-family="monospace" font-size="16.00">id</text>
<polyline fill="none" stroke="black" points="332,-117.5 456,-117.5 "/>
<text text-anchor="start" x="340" y="-100.7" font-family="monospace" font-size="16.00">courseId</text>
<polyline fill="none" stroke="black" points="332,-91.5 456,-91.5 "/>
<text text-anchor="start" x="340" y="-74.7" font-family="monospace" font-size="16.00">nameEnc</text>
<polyline fill="none" stroke="black" points="332,-65.5 456,-65.5 "/>
<text text-anchor="start" x="340" y="-48.7" font-family="monospace" font-size="16.00">cat</text>
</g>
<!-- Database&#45;&gt;Participant -->
<g id="edge3" class="edge">
<title>Database:participants&#45;&gt;Participant:n</title>
<path fill="none" stroke="black" d="M584,-388.5C458.87,-388.5 397.29,-303.68 394.13,-180.58"/>
<polygon fill="black" stroke="black" points="394.13,-180.5 398.5,-170.44 394.06,-175.5 394,-170.5 394,-170.5 394,-170.5 394.06,-175.5 389.5,-170.56 394.13,-180.5 394.13,-180.5"/>
</g>
<!-- Chapter -->
<g id="node5" class="node">
<title>Chapter</title>
<polygon fill="none" stroke="black" points="517,-0.5 517,-208.5 651,-208.5 651,-0.5 517,-0.5"/>
<text text-anchor="middle" x="584" y="-191.7" font-family="monospace" font-size="16.00">Chapter</text>
<polyline fill="none" stroke="black" points="517,-182.5 651,-182.5 "/>
<text text-anchor="start" x="525" y="-165.7" font-family="monospace" font-size="16.00">id</text>
<polyline fill="none" stroke="black" points="517,-156.5 651,-156.5 "/>
<text text-anchor="start" x="525" y="-139.7" font-family="monospace" font-size="16.00">courseId</text>
<polyline fill="none" stroke="black" points="517,-130.5 651,-130.5 "/>
<text text-anchor="start" x="525" y="-113.7" font-family="monospace" font-size="16.00">ordNum</text>
<polyline fill="none" stroke="black" points="517,-104.5 651,-104.5 "/>
<text text-anchor="start" x="525" y="-87.7" font-family="monospace" font-size="16.00">name</text>
<polyline fill="none" stroke="black" points="517,-78.5 651,-78.5 "/>
<text text-anchor="start" x="525" y="-61.7" font-family="monospace" font-size="16.00">description</text>
<polyline fill="none" stroke="black" points="517,-52.5 651,-52.5 "/>
<text text-anchor="start" x="525" y="-35.7" font-family="monospace" font-size="16.00">dueDate</text>
<polyline fill="none" stroke="black" points="517,-26.5 651,-26.5 "/>
<text text-anchor="start" x="525" y="-9.7" font-family="monospace" font-size="16.00">testRequired</text>
</g>
<!-- Database&#45;&gt;Chapter -->
<g id="edge4" class="edge">
<title>Database:chapters&#45;&gt;Chapter:n</title>
<path fill="none" stroke="black" d="M584,-362.5C519.11,-362.5 577.66,-285.35 583.54,-219.1"/>
<polygon fill="black" stroke="black" points="583.54,-218.99 588.5,-209.21 583.77,-213.99 584,-209 584,-209 584,-209 583.77,-213.99 579.5,-208.79 583.54,-218.99 583.54,-218.99"/>
</g>
<!-- Assignment -->
<g id="node6" class="node">
<title>Assignment</title>
<polygon fill="none" stroke="black" points="712,-52.5 712,-156.5 826,-156.5 826,-52.5 712,-52.5"/>
<text text-anchor="middle" x="769" y="-139.7" font-family="monospace" font-size="16.00">Assignment</text>
<polyline fill="none" stroke="black" points="712,-130.5 826,-130.5 "/>
<text text-anchor="start" x="720" y="-113.7" font-family="monospace" font-size="16.00">id</text>
<polyline fill="none" stroke="black" points="712,-104.5 826,-104.5 "/>
<text text-anchor="start" x="720" y="-87.7" font-family="monospace" font-size="16.00">name</text>
<polyline fill="none" stroke="black" points="712,-78.5 826,-78.5 "/>
<text text-anchor="start" x="720" y="-61.7" font-family="monospace" font-size="16.00">maxScore</text>
</g>
<!-- Database&#45;&gt;Assignment -->
<g id="edge5" class="edge">
<title>Database:assignments&#45;&gt;Assignment:n</title>
<path fill="none" stroke="black" d="M768,-336.5C844.14,-336.5 775.46,-245.42 769.42,-167.86"/>
<polygon fill="black" stroke="black" points="769.4,-167.49 773.5,-157.32 769.2,-162.5 769,-157.5 769,-157.5 769,-157.5 769.2,-162.5 764.5,-157.68 769.4,-167.49 769.4,-167.49"/>
</g>
<!-- ChapterResult -->
<g id="node7" class="node">
<title>ChapterResult</title>
<polygon fill="none" stroke="black" points="887.5,-39.5 887.5,-169.5 1060.5,-169.5 1060.5,-39.5 887.5,-39.5"/>
<text text-anchor="middle" x="974" y="-152.7" font-family="monospace" font-size="16.00">ChapterResult</text>
<polyline fill="none" stroke="black" points="887.5,-143.5 1060.5,-143.5 "/>
<text text-anchor="start" x="895.5" y="-126.7" font-family="monospace" font-size="16.00">id</text>
<polyline fill="none" stroke="black" points="887.5,-117.5 1060.5,-117.5 "/>
<text text-anchor="start" x="895.5" y="-100.7" font-family="monospace" font-size="16.00">participantId</text>
<polyline fill="none" stroke="black" points="887.5,-91.5 1060.5,-91.5 "/>
<text text-anchor="start" x="895.5" y="-74.7" font-family="monospace" font-size="16.00">chapterId</text>
<polyline fill="none" stroke="black" points="887.5,-65.5 1060.5,-65.5 "/>
<text text-anchor="start" x="895.5" y="-48.7" font-family="monospace" font-size="16.00">hasCompletedTest</text>
</g>
<!-- Database&#45;&gt;ChapterResult -->
<g id="edge6" class="edge">
<title>Database:chapterResults&#45;&gt;ChapterResult:n</title>
<path fill="none" stroke="black" d="M768,-310.5C875.24,-310.5 968.03,-283 973.72,-180.64"/>
<polygon fill="black" stroke="black" points="973.73,-180.5 978.5,-170.62 973.86,-175.5 974,-170.5 974,-170.5 974,-170.5 973.86,-175.5 969.5,-170.38 973.73,-180.5 973.73,-180.5"/>
</g>
<!-- AssignmentResult -->
<g id="node8" class="node">
<title>AssignmentResult</title>
<polygon fill="none" stroke="black" points="1121.5,-26.5 1121.5,-182.5 1294.5,-182.5 1294.5,-26.5 1121.5,-26.5"/>
<text text-anchor="middle" x="1208" y="-165.7" font-family="monospace" font-size="16.00">AssignmentResult</text>
<polyline fill="none" stroke="black" points="1121.5,-156.5 1294.5,-156.5 "/>
<text text-anchor="start" x="1129.5" y="-139.7" font-family="monospace" font-size="16.00">id</text>
<polyline fill="none" stroke="black" points="1121.5,-130.5 1294.5,-130.5 "/>
<text text-anchor="start" x="1129.5" y="-113.7" font-family="monospace" font-size="16.00">participantId</text>
<polyline fill="none" stroke="black" points="1121.5,-104.5 1294.5,-104.5 "/>
<text text-anchor="start" x="1129.5" y="-87.7" font-family="monospace" font-size="16.00">assignmentId</text>
<polyline fill="none" stroke="black" points="1121.5,-78.5 1294.5,-78.5 "/>
<text text-anchor="start" x="1129.5" y="-61.7" font-family="monospace" font-size="16.00">score</text>
<polyline fill="none" stroke="black" points="1121.5,-52.5 1294.5,-52.5 "/>
<text text-anchor="start" x="1129.5" y="-35.7" font-family="monospace" font-size="16.00">summary</text>
</g>
<!-- Database&#45;&gt;AssignmentResult -->
<g id="edge7" class="edge">
<title>Database:assignmentResults&#45;&gt;AssignmentResult:n</title>
<path fill="none" stroke="black" d="M768,-284.5C864.89,-284.5 1185.06,-283.87 1206.83,-193.44"/>
<polygon fill="black" stroke="black" points="1206.83,-193.43 1212.47,-184.02 1207.42,-188.47 1208,-183.5 1208,-183.5 1208,-183.5 1207.42,-188.47 1203.53,-182.98 1206.83,-193.43 1206.83,-193.43"/>
</g>
<!-- TestRequest -->
<g id="node9" class="node">
<title>TestRequest</title>
<polygon fill="none" stroke="black" points="1355.5,-52.5 1355.5,-156.5 1498.5,-156.5 1498.5,-52.5 1355.5,-52.5"/>
<text text-anchor="middle" x="1427" y="-139.7" font-family="monospace" font-size="16.00">TestRequest</text>
<polyline fill="none" stroke="black" points="1355.5,-130.5 1498.5,-130.5 "/>
<text text-anchor="start" x="1363.5" y="-113.7" font-family="monospace" font-size="16.00">id</text>
<polyline fill="none" stroke="black" points="1355.5,-104.5 1498.5,-104.5 "/>
<text text-anchor="start" x="1363.5" y="-87.7" font-family="monospace" font-size="16.00">participantId</text>
<polyline fill="none" stroke="black" points="1355.5,-78.5 1498.5,-78.5 "/>
<text text-anchor="start" x="1363.5" y="-61.7" font-family="monospace" font-size="16.00">chapterId</text>
</g>
<!-- Database&#45;&gt;TestRequest -->
<g id="edge8" class="edge">
<title>Database:testRequests&#45;&gt;TestRequest:n</title>
<path fill="none" stroke="black" d="M768,-258.5C892.27,-258.5 1205.51,-243.11 1325,-209 1370.21,-196.09 1419.13,-206.47 1426.14,-167.79"/>
<polygon fill="black" stroke="black" points="1426.17,-167.47 1431.48,-157.87 1426.59,-162.48 1427,-157.5 1427,-157.5 1427,-157.5 1426.59,-162.48 1422.52,-157.13 1426.17,-167.47 1426.17,-167.47"/>
</g>
</g>
</svg>
