<?xml version="1.0" encoding="UTF-8" standalone="no"?>
<!DOCTYPE svg PUBLIC "-//W3C//DTD SVG 1.1//EN"
 "http://www.w3.org/Graphics/SVG/1.1/DTD/svg11.dtd">
<!-- Generated by graphviz version 2.43.0 (0)
 -->
<!-- Title: G Pages: 1 -->
<svg width="1527pt" height="624pt"
 viewBox="0.00 0.00 1527.30 623.80" xmlns="http://www.w3.org/2000/svg" xmlns:xlink="http://www.w3.org/1999/xlink">
<g id="graph0" class="graph" transform="scale(1 1) rotate(0) translate(14.4 609.4)">
<title>G</title>
<polygon fill="white" stroke="transparent" points="-14.4,14.4 -14.4,-609.4 1512.9,-609.4 1512.9,14.4 -14.4,14.4"/>
<!-- Database -->
<g id="node1" class="node">
<title>Database</title>
<polygon fill="none" stroke="black" points="585,-360.5 585,-594.5 767,-594.5 767,-360.5 585,-360.5"/>
<text text-anchor="middle" x="676" y="-577.7" font-family="monospace" font-size="16.00">Database</text>
<polyline fill="none" stroke="black" points="585,-568.5 767,-568.5 "/>
<text text-anchor="start" x="593" y="-551.7" font-family="monospace" font-size="16.00">admins</text>
<polyline fill="none" stroke="black" points="585,-542.5 767,-542.5 "/>
<text text-anchor="start" x="593" y="-525.7" font-family="monospace" font-size="16.00">courses</text>
<polyline fill="none" stroke="black" points="585,-516.5 767,-516.5 "/>
<text text-anchor="start" x="593" y="-499.7" font-family="monospace" font-size="16.00">participants</text>
<polyline fill="none" stroke="black" points="585,-490.5 767,-490.5 "/>
<text text-anchor="start" x="593" y="-473.7" font-family="monospace" font-size="16.00">chapters</text>
<polyline fill="none" stroke="black" points="585,-464.5 767,-464.5 "/>
<text text-anchor="start" x="593" y="-447.7" font-family="monospace" font-size="16.00">assignments</text>
<polyline fill="none" stroke="black" points="585,-438.5 767,-438.5 "/>
<text text-anchor="start" x="593" y="-421.7" font-family="monospace" font-size="16.00">chapterResults</text>
<polyline fill="none" stroke="black" points="585,-412.5 767,-412.5 "/>
<text text-anchor="start" x="593" y="-395.7" font-family="monospace" font-size="16.00">assignmentResults</text>
<polyline fill="none" stroke="black" points="585,-386.5 767,-386.5 "/>
<text text-anchor="start" x="593" y="-369.7" font-family="monospace" font-size="16.00">testRequests</text>
</g>
<!-- Admin -->
<g id="node2" class="node">
<title>Admin</title>
<polygon fill="none" stroke="black" points="0,-180.5 0,-258.5 124,-258.5 124,-180.5 0,-180.5"/>
<text text-anchor="middle" x="62" y="-241.7" font-family="monospace" font-size="16.00">Admin</text>
<polyline fill="none" stroke="black" points="0,-232.5 124,-232.5 "/>
<text text-anchor="start" x="8" y="-215.7" font-family="monospace" font-size="16.00">id</text>
<polyline fill="none" stroke="black" points="0,-206.5 124,-206.5 "/>
<text text-anchor="start" x="8" y="-189.7" font-family="monospace" font-size="16.00">accessToken</text>
</g>
<!-- Database&#45;&gt;Admin -->
<g id="edge1" class="edge">
<title>Database:admins&#45;&gt;Admin:n</title>
<path fill="none" stroke="black" d="M584,-555.5C320.68,-555.5 68.48,-526.94 62.12,-269.54"/>
<polygon fill="black" stroke="black" points="62.12,-269.5 66.5,-259.44 62.06,-264.5 62,-259.5 62,-259.5 62,-259.5 62.06,-264.5 57.5,-259.56 62.12,-269.5 62.12,-269.5"/>
</g>
<!-- Course -->
<g id="node3" class="node">
<title>Course</title>
<polygon fill="none" stroke="black" points="185.5,-167.5 185.5,-271.5 270.5,-271.5 270.5,-167.5 185.5,-167.5"/>
<text text-anchor="middle" x="228" y="-254.7" font-family="monospace" font-size="16.00">Course</text>
<polyline fill="none" stroke="black" points="185.5,-245.5 270.5,-245.5 "/>
<text text-anchor="start" x="193.5" y="-228.7" font-family="monospace" font-size="16.00">id</text>
<polyline fill="none" stroke="black" points="185.5,-219.5 270.5,-219.5 "/>
<text text-anchor="start" x="193.5" y="-202.7" font-family="monospace" font-size="16.00">name</text>
<polyline fill="none" stroke="black" points="185.5,-193.5 270.5,-193.5 "/>
<text text-anchor="start" x="193.5" y="-176.7" font-family="monospace" font-size="16.00">adminId</text>
</g>
<!-- Database&#45;&gt;Course -->
<g id="edge2" class="edge">
<title>Database:courses&#45;&gt;Course:n</title>
<path fill="none" stroke="black" d="M584,-529.5C392.29,-529.5 233.67,-469.8 228.15,-282.67"/>
<polygon fill="black" stroke="black" points="228.15,-282.5 232.5,-272.43 228.07,-277.5 228,-272.5 228,-272.5 228,-272.5 228.07,-277.5 223.5,-272.57 228.15,-282.5 228.15,-282.5"/>
</g>
<!-- Participant -->
<g id="node4" class="node">
<title>Participant</title>
<polygon fill="none" stroke="black" points="332,-154.5 332,-284.5 456,-284.5 456,-154.5 332,-154.5"/>
<text text-anchor="middle" x="394" y="-267.7" font-family="monospace" font-size="16.00">Participant</text>
<polyline fill="none" stroke="black" points="332,-258.5 456,-258.5 "/>
<text text-anchor="start" x="340" y="-241.7" font-family="monospace" font-size="16.00">id</text>
<polyline fill="none" stroke="black" points="332,-232.5 456,-232.5 "/>
<text text-anchor="start" x="340" y="-215.7" font-family="monospace" font-size="16.00">courseId</text>
<polyline fill="none" stroke="black" points="332,-206.5 456,-206.5 "/>
<text text-anchor="start" x="340" y="-189.7" font-family="monospace" font-size="16.00">nameEnc</text>
<polyline fill="none" stroke="black" points="332,-180.5 456,-180.5 "/>
<text text-anchor="start" x="340" y="-163.7" font-family="monospace" font-size="16.00">cat</text>
</g>
<!-- Database&#45;&gt;Participant -->
<g id="edge3" class="edge">
<title>Database:participants&#45;&gt;Participant:n</title>
<path fill="none" stroke="black" d="M584,-503.5C458.87,-503.5 397.29,-418.68 394.13,-295.58"/>
<polygon fill="black" stroke="black" points="394.13,-295.5 398.5,-285.44 394.06,-290.5 394,-285.5 394,-285.5 394,-285.5 394.06,-290.5 389.5,-285.56 394.13,-295.5 394.13,-295.5"/>
</g>
<!-- Chapter -->
<g id="node5" class="node">
<title>Chapter</title>
<polygon fill="none" stroke="black" points="517,-115.5 517,-323.5 651,-323.5 651,-115.5 517,-115.5"/>
<text text-anchor="middle" x="584" y="-306.7" font-family="monospace" font-size="16.00">Chapter</text>
<polyline fill="none" stroke="black" points="517,-297.5 651,-297.5 "/>
<text text-anchor="start" x="525" y="-280.7" font-family="monospace" font-size="16.00">id</text>
<polyline fill="none" stroke="black" points="517,-271.5 651,-271.5 "/>
<text text-anchor="start" x="525" y="-254.7" font-family="monospace" font-size="16.00">courseId</text>
<polyline fill="none" stroke="black" points="517,-245.5 651,-245.5 "/>
<text text-anchor="start" x="525" y="-228.7" font-family="monospace" font-size="16.00">ordNum</text>
<polyline fill="none" stroke="black" points="517,-219.5 651,-219.5 "/>
<text text-anchor="start" x="525" y="-202.7" font-family="monospace" font-size="16.00">name</text>
<polyline fill="none" stroke="black" points="517,-193.5 651,-193.5 "/>
<text text-anchor="start" x="525" y="-176.7" font-family="monospace" font-size="16.00">description</text>
<polyline fill="none" stroke="black" points="517,-167.5 651,-167.5 "/>
<text text-anchor="start" x="525" y="-150.7" font-family="monospace" font-size="16.00">dueDate</text>
<polyline fill="none" stroke="black" points="517,-141.5 651,-141.5 "/>
<text text-anchor="start" x="525" y="-124.7" font-family="monospace" font-size="16.00">testRequired</text>
</g>
<!-- Database&#45;&gt;Chapter -->
<g id="edge4" class="edge">
<title>Database:chapters&#45;&gt;Chapter:n</title>
<path fill="none" stroke="black" d="M584,-477.5C519.11,-477.5 577.66,-400.35 583.54,-334.1"/>
<polygon fill="black" stroke="black" points="583.54,-333.99 588.5,-324.21 583.77,-328.99 584,-324 584,-324 584,-324 583.77,-328.99 579.5,-323.79 583.54,-333.99 583.54,-333.99"/>
</g>
<!-- Assignment -->
<g id="node6" class="node">
<title>Assignment</title>
<polygon fill="none" stroke="black" points="712,-167.5 712,-271.5 826,-271.5 826,-167.5 712,-167.5"/>
<text text-anchor="middle" x="769" y="-254.7" font-family="monospace" font-size="16.00">Assignment</text>
<polyline fill="none" stroke="black" points="712,-245.5 826,-245.5 "/>
<text text-anchor="start" x="720" y="-228.7" font-family="monospace" font-size="16.00">id</text>
<polyline fill="none" stroke="black" points="712,-219.5 826,-219.5 "/>
<text text-anchor="start" x="720" y="-202.7" font-family="monospace" font-size="16.00">name</text>
<polyline fill="none" stroke="black" points="712,-193.5 826,-193.5 "/>
<text text-anchor="start" x="720" y="-176.7" font-family="monospace" font-size="16.00">maxScore</text>
</g>
<!-- Database&#45;&gt;Assignment -->
<g id="edge5" class="edge">
<title>Database:assignments&#45;&gt;Assignment:n</title>
<path fill="none" stroke="black" d="M768,-451.5C844.14,-451.5 775.46,-360.42 769.42,-282.86"/>
<polygon fill="black" stroke="black" points="769.4,-282.49 773.5,-272.32 769.2,-277.5 769,-272.5 769,-272.5 769,-272.5 769.2,-277.5 764.5,-272.68 769.4,-282.49 769.4,-282.49"/>
</g>
<!-- ChapterResult -->
<g id="node7" class="node">
<title>ChapterResult</title>
<polygon fill="none" stroke="black" points="887.5,-154.5 887.5,-284.5 1060.5,-284.5 1060.5,-154.5 887.5,-154.5"/>
<text text-anchor="middle" x="974" y="-267.7" font-family="monospace" font-size="16.00">ChapterResult</text>
<polyline fill="none" stroke="black" points="887.5,-258.5 1060.5,-258.5 "/>
<text text-anchor="start" x="895.5" y="-241.7" font-family="monospace" font-size="16.00">id</text>
<polyline fill="none" stroke="black" points="887.5,-232.5 1060.5,-232.5 "/>
<text text-anchor="start" x="895.5" y="-215.7" font-family="monospace" font-size="16.00">participantId</text>
<polyline fill="none" stroke="black" points="887.5,-206.5 1060.5,-206.5 "/>
<text text-anchor="start" x="895.5" y="-189.7" font-family="monospace" font-size="16.00">chapterId</text>
<polyline fill="none" stroke="black" points="887.5,-180.5 1060.5,-180.5 "/>
<text text-anchor="start" x="895.5" y="-163.7" font-family="monospace" font-size="16.00">hasCompletedTest</text>
</g>
<!-- Database&#45;&gt;ChapterResult -->
<g id="edge6" class="edge">
<title>Database:chapterResults&#45;&gt;ChapterResult:n</title>
<path fill="none" stroke="black" d="M768,-425.5C875.24,-425.5 968.03,-398 973.72,-295.64"/>
<polygon fill="black" stroke="black" points="973.73,-295.5 978.5,-285.62 973.86,-290.5 974,-285.5 974,-285.5 974,-285.5 973.86,-290.5 969.5,-285.38 973.73,-295.5 973.73,-295.5"/>
</g>
<!-- AssignmentResult -->
<g id="node8" class="node">
<title>AssignmentResult</title>
<polygon fill="none" stroke="black" points="1121.5,-141.5 1121.5,-297.5 1294.5,-297.5 1294.5,-141.5 1121.5,-141.5"/>
<text text-anchor="middle" x="1208" y="-280.7" font-family="monospace" font-size="16.00">AssignmentResult</text>
<polyline fill="none" stroke="black" points="1121.5,-271.5 1294.5,-271.5 "/>
<text text-anchor="start" x="1129.5" y="-254.7" font-family="monospace" font-size="16.00">id</text>
<polyline fill="none" stroke="black" points="1121.5,-245.5 1294.5,-245.5 "/>
<text text-anchor="start" x="1129.5" y="-228.7" font-family="monospace" font-size="16.00">participantId</text>
<polyline fill="none" stroke="black" points="1121.5,-219.5 1294.5,-219.5 "/>
<text text-anchor="start" x="1129.5" y="-202.7" font-family="monospace" font-size="16.00">assignmentId</text>
<polyline fill="none" stroke="black" points="1121.5,-193.5 1294.5,-193.5 "/>
<text text-anchor="start" x="1129.5" y="-176.7" font-family="monospace" font-size="16.00">score</text>
<polyline fill="none" stroke="black" points="1121.5,-167.5 1294.5,-167.5 "/>
<text text-anchor="start" x="1129.5" y="-150.7" font-family="monospace" font-size="16.00">summary</text>
</g>
<!-- Database&#45;&gt;AssignmentResult -->
<g id="edge7" class="edge">
<title>Database:assignmentResults&#45;&gt;AssignmentResult:n</title>
<path fill="none" stroke="black" d="M768,-399.5C864.89,-399.5 1185.06,-398.87 1206.83,-308.44"/>
<polygon fill="black" stroke="black" points="1206.83,-308.43 1212.47,-299.02 1207.42,-303.47 1208,-298.5 1208,-298.5 1208,-298.5 1207.42,-303.47 1203.53,-297.98 1206.83,-308.43 1206.83,-308.43"/>
</g>
<!-- TestRequest -->
<g id="node9" class="node">
<title>TestRequest</title>
<polygon fill="none" stroke="black" points="1355.5,-167.5 1355.5,-271.5 1498.5,-271.5 1498.5,-167.5 1355.5,-167.5"/>
<text text-anchor="middle" x="1427" y="-254.7" font-family="monospace" font-size="16.00">TestRequest</text>
<polyline fill="none" stroke="black" points="1355.5,-245.5 1498.5,-245.5 "/>
<text text-anchor="start" x="1363.5" y="-228.7" font-family="monospace" font-size="16.00">id</text>
<polyline fill="none" stroke="black" points="1355.5,-219.5 1498.5,-219.5 "/>
<text text-anchor="start" x="1363.5" y="-202.7" font-family="monospace" font-size="16.00">participantId</text>
<polyline fill="none" stroke="black" points="1355.5,-193.5 1498.5,-193.5 "/>
<text text-anchor="start" x="1363.5" y="-176.7" font-family="monospace" font-size="16.00">chapterId</text>
</g>
<!-- Database&#45;&gt;TestRequest -->
<g id="edge8" class="edge">
<title>Database:testRequests&#45;&gt;TestRequest:n</title>
<path fill="none" stroke="black" d="M768,-373.5C892.27,-373.5 1205.51,-358.11 1325,-324 1370.21,-311.09 1419.13,-321.47 1426.14,-282.79"/>
<polygon fill="black" stroke="black" points="1426.17,-282.47 1431.48,-272.87 1426.59,-277.48 1427,-272.5 1427,-272.5 1427,-272.5 1426.59,-277.48 1422.52,-272.13 1426.17,-282.47 1426.17,-282.47"/>
</g>
<!-- AccessToken -->
<g id="node10" class="node">
<title>AccessToken</title>
<polygon fill="none" stroke="black" points="166,-0.5 166,-78.5 290,-78.5 290,-0.5 166,-0.5"/>
<text text-anchor="middle" x="228" y="-61.7" font-family="monospace" font-size="16.00">AccessToken</text>
<polyline fill="none" stroke="black" points="166,-52.5 290,-52.5 "/>
<text text-anchor="start" x="174" y="-35.7" font-family="monospace" font-size="16.00">identifier</text>
<polyline fill="none" stroke="black" points="166,-26.5 290,-26.5 "/>
<text text-anchor="start" x="174" y="-9.7" font-family="monospace" font-size="16.00">secret</text>
</g>
<!-- Admin&#45;&gt;AccessToken -->
<g id="edge9" class="edge">
<title>Admin:accessToken&#45;&gt;AccessToken</title>
<path fill="none" stroke="black" d="M125,-193.5C162.35,-193.5 134.84,-146.44 155,-115 163.21,-102.19 173.89,-89.77 184.54,-78.86"/>
</g>
<!-- Participant&#45;&gt;AccessToken -->
<g id="edge10" class="edge">
<title>Participant:cat&#45;&gt;AccessToken</title>
<path fill="none" stroke="black" d="M331,-167.5C304.13,-167.5 317.2,-136.44 301,-115 291.5,-102.43 280.03,-89.8 269.02,-78.6"/>
</g>
</g>
</svg>
