<?xml version="1.0" encoding="UTF-8" standalone="no"?>
<!DOCTYPE svg PUBLIC "-//W3C//DTD SVG 1.1//EN"
 "http://www.w3.org/Graphics/SVG/1.1/DTD/svg11.dtd">
<!-- Generated by graphviz version 2.43.0 (0)
 -->
<!-- Title: G Pages: 1 -->
<svg width="1527pt" height="650pt"
 viewBox="0.00 0.00 1527.30 649.80" xmlns="http://www.w3.org/2000/svg" xmlns:xlink="http://www.w3.org/1999/xlink">
<g id="graph0" class="graph" transform="scale(1 1) rotate(0) translate(14.4 635.4)">
<title>G</title>
<polygon fill="white" stroke="transparent" points="-14.4,14.4 -14.4,-635.4 1512.9,-635.4 1512.9,14.4 -14.4,14.4"/>
<!-- Database -->
<g id="node1" class="node">
<title>Database</title>
<polygon fill="none" stroke="black" points="585,-386.5 585,-620.5 767,-620.5 767,-386.5 585,-386.5"/>
<text text-anchor="middle" x="676" y="-603.7" font-family="monospace" font-size="16.00">Database</text>
<polyline fill="none" stroke="black" points="585,-594.5 767,-594.5 "/>
<text text-anchor="start" x="593" y="-577.7" font-family="monospace" font-size="16.00">admins</text>
<polyline fill="none" stroke="black" points="585,-568.5 767,-568.5 "/>
<text text-anchor="start" x="593" y="-551.7" font-family="monospace" font-size="16.00">courses</text>
<polyline fill="none" stroke="black" points="585,-542.5 767,-542.5 "/>
<text text-anchor="start" x="593" y="-525.7" font-family="monospace" font-size="16.00">participants</text>
<polyline fill="none" stroke="black" points="585,-516.5 767,-516.5 "/>
<text text-anchor="start" x="593" y="-499.7" font-family="monospace" font-size="16.00">chapters</text>
<polyline fill="none" stroke="black" points="585,-490.5 767,-490.5 "/>
<text text-anchor="start" x="593" y="-473.7" font-family="monospace" font-size="16.00">assignments</text>
<polyline fill="none" stroke="black" points="585,-464.5 767,-464.5 "/>
<text text-anchor="start" x="593" y="-447.7" font-family="monospace" font-size="16.00">chapterResults</text>
<polyline fill="none" stroke="black" points="585,-438.5 767,-438.5 "/>
<text text-anchor="start" x="593" y="-421.7" font-family="monospace" font-size="16.00">assignmentResults</text>
<polyline fill="none" stroke="black" points="585,-412.5 767,-412.5 "/>
<text text-anchor="start" x="593" y="-395.7" font-family="monospace" font-size="16.00">testRequests</text>
</g>
<!-- Admin -->
<g id="node2" class="node">
<title>Admin</title>
<polygon fill="none" stroke="black" points="0,-193.5 0,-271.5 124,-271.5 124,-193.5 0,-193.5"/>
<text text-anchor="middle" x="62" y="-254.7" font-family="monospace" font-size="16.00">Admin</text>
<polyline fill="none" stroke="black" points="0,-245.5 124,-245.5 "/>
<text text-anchor="start" x="8" y="-228.7" font-family="monospace" font-size="16.00">id</text>
<polyline fill="none" stroke="black" points="0,-219.5 124,-219.5 "/>
<text text-anchor="start" x="8" y="-202.7" font-family="monospace" font-size="16.00">accessToken</text>
</g>
<!-- Database&#45;&gt;Admin -->
<g id="edge1" class="edge">
<title>Database:admins&#45;&gt;Admin:n</title>
<path fill="none" stroke="black" d="M584,-581.5C317.82,-581.5 68.41,-543.09 62.12,-282.66"/>
<polygon fill="black" stroke="black" points="62.12,-282.5 66.5,-272.45 62.06,-277.5 62,-272.5 62,-272.5 62,-272.5 62.06,-277.5 57.5,-272.55 62.12,-282.5 62.12,-282.5"/>
</g>
<!-- Course -->
<g id="node3" class="node">
<title>Course</title>
<polygon fill="none" stroke="black" points="185.5,-180.5 185.5,-284.5 270.5,-284.5 270.5,-180.5 185.5,-180.5"/>
<text text-anchor="middle" x="228" y="-267.7" font-family="monospace" font-size="16.00">Course</text>
<polyline fill="none" stroke="black" points="185.5,-258.5 270.5,-258.5 "/>
<text text-anchor="start" x="193.5" y="-241.7" font-family="monospace" font-size="16.00">id</text>
<polyline fill="none" stroke="black" points="185.5,-232.5 270.5,-232.5 "/>
<text text-anchor="start" x="193.5" y="-215.7" font-family="monospace" font-size="16.00">name</text>
<polyline fill="none" stroke="black" points="185.5,-206.5 270.5,-206.5 "/>
<text text-anchor="start" x="193.5" y="-189.7" font-family="monospace" font-size="16.00">adminId</text>
</g>
<!-- Database&#45;&gt;Course -->
<g id="edge2" class="edge">
<title>Database:courses&#45;&gt;Course:n</title>
<path fill="none" stroke="black" d="M584,-555.5C388.81,-555.5 233.39,-486.5 228.14,-295.57"/>
<polygon fill="black" stroke="black" points="228.14,-295.5 232.5,-285.44 228.07,-290.5 228,-285.5 228,-285.5 228,-285.5 228.07,-290.5 223.5,-285.56 228.14,-295.5 228.14,-295.5"/>
</g>
<!-- Participant -->
<g id="node5" class="node">
<title>Participant</title>
<polygon fill="none" stroke="black" points="332,-167.5 332,-297.5 456,-297.5 456,-167.5 332,-167.5"/>
<text text-anchor="middle" x="394" y="-280.7" font-family="monospace" font-size="16.00">Participant</text>
<polyline fill="none" stroke="black" points="332,-271.5 456,-271.5 "/>
<text text-anchor="start" x="340" y="-254.7" font-family="monospace" font-size="16.00">id</text>
<polyline fill="none" stroke="black" points="332,-245.5 456,-245.5 "/>
<text text-anchor="start" x="340" y="-228.7" font-family="monospace" font-size="16.00">courseId</text>
<polyline fill="none" stroke="black" points="332,-219.5 456,-219.5 "/>
<text text-anchor="start" x="340" y="-202.7" font-family="monospace" font-size="16.00">nameEnc</text>
<polyline fill="none" stroke="black" points="332,-193.5 456,-193.5 "/>
<text text-anchor="start" x="340" y="-176.7" font-family="monospace" font-size="16.00">cat</text>
</g>
<!-- Database&#45;&gt;Participant -->
<g id="edge3" class="edge">
<title>Database:participants&#45;&gt;Participant:n</title>
<path fill="none" stroke="black" d="M584,-529.5C454.44,-529.5 396.95,-436.35 394.11,-308.56"/>
<polygon fill="black" stroke="black" points="394.11,-308.5 398.5,-298.45 394.06,-303.5 394,-298.5 394,-298.5 394,-298.5 394.06,-303.5 389.5,-298.55 394.11,-308.5 394.11,-308.5"/>
</g>
<!-- Chapter -->
<g id="node6" class="node">
<title>Chapter</title>
<polygon fill="none" stroke="black" points="517,-115.5 517,-349.5 651,-349.5 651,-115.5 517,-115.5"/>
<text text-anchor="middle" x="584" y="-332.7" font-family="monospace" font-size="16.00">Chapter</text>
<polyline fill="none" stroke="black" points="517,-323.5 651,-323.5 "/>
<text text-anchor="start" x="525" y="-306.7" font-family="monospace" font-size="16.00">id</text>
<polyline fill="none" stroke="black" points="517,-297.5 651,-297.5 "/>
<text text-anchor="start" x="525" y="-280.7" font-family="monospace" font-size="16.00">courseId</text>
<polyline fill="none" stroke="black" points="517,-271.5 651,-271.5 "/>
<text text-anchor="start" x="525" y="-254.7" font-family="monospace" font-size="16.00">ordNum</text>
<polyline fill="none" stroke="black" points="517,-245.5 651,-245.5 "/>
<text text-anchor="start" x="525" y="-228.7" font-family="monospace" font-size="16.00">name</text>
<polyline fill="none" stroke="black" points="517,-219.5 651,-219.5 "/>
<text text-anchor="start" x="525" y="-202.7" font-family="monospace" font-size="16.00">description</text>
<polyline fill="none" stroke="black" points="517,-193.5 651,-193.5 "/>
<text text-anchor="start" x="525" y="-176.7" font-family="monospace" font-size="16.00">dueDate</text>
<polyline fill="none" stroke="black" points="517,-167.5 651,-167.5 "/>
<text text-anchor="start" x="525" y="-150.7" font-family="monospace" font-size="16.00">testRequired</text>
<polyline fill="none" stroke="black" points="517,-141.5 651,-141.5 "/>
<text text-anchor="start" x="525" y="-124.7" font-family="monospace" font-size="16.00">assignments</text>
</g>
<!-- Database&#45;&gt;Chapter -->
<g id="edge4" class="edge">
<title>Database:chapters&#45;&gt;Chapter:n</title>
<path fill="none" stroke="black" d="M584,-503.5C519.11,-503.5 577.66,-426.35 583.54,-360.1"/>
<polygon fill="black" stroke="black" points="583.54,-359.99 588.5,-350.21 583.77,-354.99 584,-350 584,-350 584,-350 583.77,-354.99 579.5,-349.79 583.54,-359.99 583.54,-359.99"/>
</g>
<!-- Assignment -->
<g id="node7" class="node">
<title>Assignment</title>
<polygon fill="none" stroke="black" points="712,-180.5 712,-284.5 826,-284.5 826,-180.5 712,-180.5"/>
<text text-anchor="middle" x="769" y="-267.7" font-family="monospace" font-size="16.00">Assignment</text>
<polyline fill="none" stroke="black" points="712,-258.5 826,-258.5 "/>
<text text-anchor="start" x="720" y="-241.7" font-family="monospace" font-size="16.00">id</text>
<polyline fill="none" stroke="black" points="712,-232.5 826,-232.5 "/>
<text text-anchor="start" x="720" y="-215.7" font-family="monospace" font-size="16.00">name</text>
<polyline fill="none" stroke="black" points="712,-206.5 826,-206.5 "/>
<text text-anchor="start" x="720" y="-189.7" font-family="monospace" font-size="16.00">maxScore</text>
</g>
<!-- Database&#45;&gt;Assignment -->
<g id="edge5" class="edge">
<title>Database:assignments&#45;&gt;Assignment:n</title>
<path fill="none" stroke="black" d="M768,-477.5C850,-477.5 775.33,-379 769.37,-295.59"/>
<polygon fill="black" stroke="black" points="769.37,-295.49 773.5,-285.33 769.18,-290.5 769,-285.5 769,-285.5 769,-285.5 769.18,-290.5 764.5,-285.67 769.37,-295.49 769.37,-295.49"/>
</g>
<!-- ChapterResult -->
<g id="node8" class="node">
<title>ChapterResult</title>
<polygon fill="none" stroke="black" points="887.5,-167.5 887.5,-297.5 1060.5,-297.5 1060.5,-167.5 887.5,-167.5"/>
<text text-anchor="middle" x="974" y="-280.7" font-family="monospace" font-size="16.00">ChapterResult</text>
<polyline fill="none" stroke="black" points="887.5,-271.5 1060.5,-271.5 "/>
<text text-anchor="start" x="895.5" y="-254.7" font-family="monospace" font-size="16.00">id</text>
<polyline fill="none" stroke="black" points="887.5,-245.5 1060.5,-245.5 "/>
<text text-anchor="start" x="895.5" y="-228.7" font-family="monospace" font-size="16.00">participantId</text>
<polyline fill="none" stroke="black" points="887.5,-219.5 1060.5,-219.5 "/>
<text text-anchor="start" x="895.5" y="-202.7" font-family="monospace" font-size="16.00">assignmentId</text>
<polyline fill="none" stroke="black" points="887.5,-193.5 1060.5,-193.5 "/>
<text text-anchor="start" x="895.5" y="-176.7" font-family="monospace" font-size="16.00">hasCompletedTest</text>
</g>
<!-- Database&#45;&gt;ChapterResult -->
<g id="edge6" class="edge">
<title>Database:chapterResults&#45;&gt;ChapterResult:n</title>
<path fill="none" stroke="black" d="M768,-451.5C878.59,-451.5 968.41,-414.87 973.75,-308.65"/>
<polygon fill="black" stroke="black" points="973.75,-308.5 978.5,-298.61 973.88,-303.5 974,-298.5 974,-298.5 974,-298.5 973.88,-303.5 969.5,-298.39 973.75,-308.5 973.75,-308.5"/>
</g>
<!-- AssignmentResult -->
<g id="node9" class="node">
<title>AssignmentResult</title>
<polygon fill="none" stroke="black" points="1121.5,-154.5 1121.5,-310.5 1294.5,-310.5 1294.5,-154.5 1121.5,-154.5"/>
<text text-anchor="middle" x="1208" y="-293.7" font-family="monospace" font-size="16.00">AssignmentResult</text>
<polyline fill="none" stroke="black" points="1121.5,-284.5 1294.5,-284.5 "/>
<text text-anchor="start" x="1129.5" y="-267.7" font-family="monospace" font-size="16.00">id</text>
<polyline fill="none" stroke="black" points="1121.5,-258.5 1294.5,-258.5 "/>
<text text-anchor="start" x="1129.5" y="-241.7" font-family="monospace" font-size="16.00">participantId</text>
<polyline fill="none" stroke="black" points="1121.5,-232.5 1294.5,-232.5 "/>
<text text-anchor="start" x="1129.5" y="-215.7" font-family="monospace" font-size="16.00">assignmentId</text>
<polyline fill="none" stroke="black" points="1121.5,-206.5 1294.5,-206.5 "/>
<text text-anchor="start" x="1129.5" y="-189.7" font-family="monospace" font-size="16.00">score</text>
<polyline fill="none" stroke="black" points="1121.5,-180.5 1294.5,-180.5 "/>
<text text-anchor="start" x="1129.5" y="-163.7" font-family="monospace" font-size="16.00">summary</text>
</g>
<!-- Database&#45;&gt;AssignmentResult -->
<g id="edge7" class="edge">
<title>Database:assignmentResults&#45;&gt;AssignmentResult:n</title>
<path fill="none" stroke="black" d="M768,-425.5C865.55,-425.5 1185.1,-413.38 1206.83,-321.55"/>
<polygon fill="black" stroke="black" points="1206.85,-321.43 1212.47,-312.02 1207.42,-316.47 1208,-311.5 1208,-311.5 1208,-311.5 1207.42,-316.47 1203.53,-310.98 1206.85,-321.43 1206.85,-321.43"/>
</g>
<!-- TestRequest -->
<g id="node10" class="node">
<title>TestRequest</title>
<polygon fill="none" stroke="black" points="1355.5,-180.5 1355.5,-284.5 1498.5,-284.5 1498.5,-180.5 1355.5,-180.5"/>
<text text-anchor="middle" x="1427" y="-267.7" font-family="monospace" font-size="16.00">TestRequest</text>
<polyline fill="none" stroke="black" points="1355.5,-258.5 1498.5,-258.5 "/>
<text text-anchor="start" x="1363.5" y="-241.7" font-family="monospace" font-size="16.00">id</text>
<polyline fill="none" stroke="black" points="1355.5,-232.5 1498.5,-232.5 "/>
<text text-anchor="start" x="1363.5" y="-215.7" font-family="monospace" font-size="16.00">participantId</text>
<polyline fill="none" stroke="black" points="1355.5,-206.5 1498.5,-206.5 "/>
<text text-anchor="start" x="1363.5" y="-189.7" font-family="monospace" font-size="16.00">chapterId</text>
</g>
<!-- Database&#45;&gt;TestRequest -->
<g id="edge8" class="edge">
<title>Database:testRequests&#45;&gt;TestRequest:n</title>
<path fill="none" stroke="black" d="M768,-399.5C892.27,-399.5 1207.29,-389.83 1325,-350 1372.33,-333.98 1420,-338.38 1426.3,-295.69"/>
<polygon fill="black" stroke="black" points="1426.31,-295.48 1431.49,-285.81 1426.66,-290.49 1427,-285.5 1427,-285.5 1427,-285.5 1426.66,-290.49 1422.51,-285.19 1426.31,-295.48 1426.31,-295.48"/>
</g>
<!-- AccessToken -->
<g id="node4" class="node">
<title>AccessToken</title>
<polygon fill="none" stroke="black" points="135,-0.5 135,-78.5 259,-78.5 259,-0.5 135,-0.5"/>
<text text-anchor="middle" x="197" y="-61.7" font-family="monospace" font-size="16.00">AccessToken</text>
<polyline fill="none" stroke="black" points="135,-52.5 259,-52.5 "/>
<text text-anchor="start" x="143" y="-35.7" font-family="monospace" font-size="16.00">hash</text>
<polyline fill="none" stroke="black" points="135,-26.5 259,-26.5 "/>
<text text-anchor="start" x="143" y="-9.7" font-family="monospace" font-size="16.00">salt</text>
</g>
<!-- Admin&#45;&gt;AccessToken -->
<g id="edge9" class="edge">
<title>Admin:accessToken&#45;&gt;AccessToken</title>
<path fill="none" stroke="black" d="M125,-206.5C167.8,-206.5 137.74,-154.16 155,-115 160.33,-102.91 167.03,-90.22 173.5,-78.81"/>
</g>
<!-- Participant&#45;&gt;AccessToken -->
<g id="edge10" class="edge">
<title>Participant:w&#45;&gt;AccessToken</title>
<path fill="none" stroke="black" d="M331,-180.5C298.98,-180.5 321.37,-139.71 301,-115 289.28,-100.77 274.22,-87.94 259.23,-77.1"/>
</g>
</g>
</svg>
