<?xml version="1.0" encoding="UTF-8" standalone="no"?>
<!DOCTYPE svg PUBLIC "-//W3C//DTD SVG 1.1//EN"
 "http://www.w3.org/Graphics/SVG/1.1/DTD/svg11.dtd">
<!-- Generated by graphviz version 2.43.0 (0)
 -->
<!-- Title: G Pages: 1 -->
<svg width="432pt" height="306pt"
 viewBox="0.00 0.00 432.00 306.00" xmlns="http://www.w3.org/2000/svg" xmlns:xlink="http://www.w3.org/1999/xlink">
<g id="graph0" class="graph" transform="scale(1 1) rotate(0) translate(4 302)">
<title>G</title>
<polygon fill="white" stroke="transparent" points="-4,4 -4,-302 428,-302 428,4 -4,4"/>
<g id="clust1" class="cluster">
<title>cluster_server</title>
<polygon fill="none" stroke="blue" points="163,-8 163,-290 311,-290 311,-8 163,-8"/>
<text text-anchor="middle" x="237" y="-271.6" font-family="monospace" font-size="18.00">Server</text>
</g>
<g id="clust2" class="cluster">
<title>cluster_server_session</title>
<polygon fill="none" stroke="blue" points="171,-16 171,-98 303,-98 303,-16 171,-16"/>
<text text-anchor="middle" x="237" y="-79.6" font-family="monospace" font-size="18.00">Per&#45;Session</text>
</g>
<g id="clust3" class="cluster">
<title>cluster_client</title>
<polygon fill="none" stroke="green" points="3,-16 3,-98 83,-98 83,-16 3,-16"/>
<text text-anchor="middle" x="43" y="-79.6" font-family="monospace" font-size="18.00">Client</text>
</g>
<!-- UEK -->
<g id="node1" class="node">
<title>UEK</title>
<polygon fill="none" stroke="black" points="370,-162 370,-198 424,-198 424,-162 370,-162"/>
<text text-anchor="middle" x="397" y="-175.6" font-family="monospace" font-size="18.00">UEK</text>
</g>
<!-- DATA -->
<g id="node3" class="node">
<title>DATA</title>
<polygon fill="lightgrey" stroke="black" points="207.5,-217 207.5,-253 266.5,-253 266.5,-217 207.5,-217"/>
<text text-anchor="middle" x="237" y="-230.6" font-family="monospace" font-size="18.00">DATA</text>
</g>
<!-- UEK&#45;&gt;DATA -->
<g id="edge1" class="edge">
<title>UEK&#45;&gt;DATA</title>
<path fill="none" stroke="orange" d="M369.65,-191.89C363.88,-194.35 357.77,-196.85 352,-199 327.21,-208.24 298.84,-217.2 276.6,-223.88"/>
<polygon fill="orange" stroke="orange" points="275.44,-220.57 266.85,-226.77 277.44,-227.28 275.44,-220.57"/>
<text text-anchor="middle" x="335.5" y="-212.8" font-family="Times,serif" font-size="14.00">encs</text>
</g>
<!-- AT -->
<g id="node2" class="node">
<title>AT</title>
<polygon fill="none" stroke="black" points="16,-134 16,-170 70,-170 70,-134 16,-134"/>
<text text-anchor="middle" x="43" y="-147.6" font-family="monospace" font-size="18.00">AT</text>
</g>
<!-- IEK -->
<g id="node4" class="node">
<title>IEK</title>
<polygon fill="lightgrey" stroke="black" points="210,-162 210,-198 264,-198 264,-162 210,-162"/>
<text text-anchor="middle" x="237" y="-175.6" font-family="monospace" font-size="18.00">IEK</text>
</g>
<!-- AT&#45;&gt;IEK -->
<g id="edge3" class="edge">
<title>AT&#45;&gt;IEK</title>
<path fill="none" stroke="orange" d="M70.29,-155.83C103.81,-160.72 161.91,-169.2 199.65,-174.7"/>
<polygon fill="orange" stroke="orange" points="199.32,-178.19 209.72,-176.17 200.33,-171.26 199.32,-178.19"/>
<text text-anchor="middle" x="124" y="-170.8" font-family="Times,serif" font-size="14.00">encs</text>
</g>
<!-- IEK&#45;&gt;UEK -->
<g id="edge2" class="edge">
<title>IEK&#45;&gt;UEK</title>
<path fill="none" stroke="red" d="M264.09,-180C290.16,-180 330.47,-180 359.66,-180"/>
<polygon fill="red" stroke="red" points="359.87,-183.5 369.87,-180 359.87,-176.5 359.87,-183.5"/>
<text text-anchor="middle" x="335.5" y="-183.8" font-family="Times,serif" font-size="14.00">is</text>
</g>
<!-- AT_HASH -->
<g id="node5" class="node">
<title>AT_HASH</title>
<polygon fill="lightgrey" stroke="black" points="207.5,-107 207.5,-143 266.5,-143 266.5,-107 207.5,-107"/>
<text text-anchor="middle" x="237" y="-120.6" font-family="monospace" font-size="18.00">AT&#45;#</text>
</g>
<!-- AT_HASH&#45;&gt;AT -->
<g id="edge6" class="edge">
<title>AT_HASH&#45;&gt;AT</title>
<path fill="none" stroke="black" d="M207.3,-121.63C178.07,-119.06 131.68,-117.42 93,-127 88.5,-128.12 83.94,-129.71 79.51,-131.55"/>
<polygon fill="black" stroke="black" points="77.69,-128.54 70.09,-135.92 80.63,-134.89 77.69,-128.54"/>
<text text-anchor="middle" x="124" y="-145.8" font-family="Times,serif" font-size="14.00">is</text>
<text text-anchor="middle" x="124" y="-130.8" font-family="Times,serif" font-size="14.00">(hashed)</text>
</g>
<!-- SEK -->
<g id="node6" class="node">
<title>SEK</title>
<polygon fill="lightgrey" stroke="black" points="210,-25 210,-61 264,-61 264,-25 210,-25"/>
<text text-anchor="middle" x="237" y="-38.6" font-family="monospace" font-size="18.00">SEK</text>
</g>
<!-- SEK&#45;&gt;UEK -->
<g id="edge4" class="edge">
<title>SEK&#45;&gt;UEK</title>
<path fill="none" stroke="red" d="M264.1,-47.11C278.88,-50.4 297.13,-56.15 311,-66 342.91,-88.67 367.89,-126.98 382.29,-152.86"/>
<polygon fill="red" stroke="red" points="379.28,-154.65 387.11,-161.79 385.44,-151.33 379.28,-154.65"/>
<text text-anchor="middle" x="335.5" y="-106.8" font-family="Times,serif" font-size="14.00">is</text>
</g>
<!-- SET -->
<g id="node7" class="node">
<title>SET</title>
<polygon fill="lightgrey" stroke="black" points="16,-25 16,-61 70,-61 70,-25 16,-25"/>
<text text-anchor="middle" x="43" y="-38.6" font-family="monospace" font-size="18.00">SET</text>
</g>
<!-- SET&#45;&gt;SEK -->
<g id="edge5" class="edge">
<title>SET&#45;&gt;SEK</title>
<path fill="none" stroke="orange" d="M70.29,-43C103.81,-43 161.91,-43 199.65,-43"/>
<polygon fill="orange" stroke="orange" points="199.72,-46.5 209.72,-43 199.72,-39.5 199.72,-46.5"/>
<text text-anchor="middle" x="124" y="-46.8" font-family="Times,serif" font-size="14.00">encs</text>
</g>
</g>
</svg>
